<mxfile host="Electron" modified="2023-11-23T20:12:46.516Z" agent="Mozilla/5.0 (Macintosh; Intel Mac OS X 10_15_7) AppleWebKit/537.36 (KHTML, like Gecko) draw.io/22.1.2 Chrome/114.0.5735.289 Electron/25.9.4 Safari/537.36" etag="68SPSVXdlyeRHZX_gZeB" version="22.1.2" type="device">
  <diagram name="Page-1" id="ssLpnz4dRdgNs2Zpdkk9">
    <mxGraphModel dx="58" dy="-82" grid="1" gridSize="10" guides="1" tooltips="1" connect="1" arrows="1" fold="1" page="1" pageScale="1" pageWidth="1100" pageHeight="850" math="0" shadow="0">
      <root>
        <mxCell id="0" />
        <mxCell id="1" parent="0" />
        <mxCell id="HPQqTix-k1KZv60HH8lt-1" value="" style="group" parent="1" vertex="1" connectable="0">
          <mxGeometry x="1593" y="1551" width="45" height="45" as="geometry" />
        </mxCell>
        <mxCell id="HPQqTix-k1KZv60HH8lt-2" value="" style="group" parent="HPQqTix-k1KZv60HH8lt-1" vertex="1" connectable="0">
          <mxGeometry width="45" height="45" as="geometry" />
        </mxCell>
        <mxCell id="HPQqTix-k1KZv60HH8lt-3" value="" style="ellipse;whiteSpace=wrap;html=1;aspect=fixed;" parent="HPQqTix-k1KZv60HH8lt-2" vertex="1">
          <mxGeometry width="45" height="45" as="geometry" />
        </mxCell>
        <mxCell id="HPQqTix-k1KZv60HH8lt-4" value="" style="ellipse;whiteSpace=wrap;html=1;aspect=fixed;fillColor=#000000;" parent="HPQqTix-k1KZv60HH8lt-2" vertex="1">
          <mxGeometry x="7.5" y="7.5" width="30" height="30" as="geometry" />
        </mxCell>
        <mxCell id="RpzJhlvnqVRAioXKujeT-3" style="edgeStyle=orthogonalEdgeStyle;rounded=0;orthogonalLoop=1;jettySize=auto;html=1;exitX=1;exitY=0.5;exitDx=0;exitDy=0;entryX=0;entryY=0.5;entryDx=0;entryDy=0;" edge="1" parent="1" source="HPQqTix-k1KZv60HH8lt-8" target="RpzJhlvnqVRAioXKujeT-1">
          <mxGeometry relative="1" as="geometry" />
        </mxCell>
        <mxCell id="RpzJhlvnqVRAioXKujeT-13" value="Seat not safe (no seat belt, etc.)" style="edgeLabel;html=1;align=center;verticalAlign=middle;resizable=0;points=[];" vertex="1" connectable="0" parent="RpzJhlvnqVRAioXKujeT-3">
          <mxGeometry x="-0.0072" y="4" relative="1" as="geometry">
            <mxPoint y="-11" as="offset" />
          </mxGeometry>
        </mxCell>
        <mxCell id="RpzJhlvnqVRAioXKujeT-4" style="edgeStyle=orthogonalEdgeStyle;rounded=0;orthogonalLoop=1;jettySize=auto;html=1;exitX=0.5;exitY=1;exitDx=0;exitDy=0;entryX=0.5;entryY=0;entryDx=0;entryDy=0;" edge="1" parent="1" source="HPQqTix-k1KZv60HH8lt-8" target="d0ObZKYIOj4vL6NHh_b1-1">
          <mxGeometry relative="1" as="geometry" />
        </mxCell>
        <mxCell id="RpzJhlvnqVRAioXKujeT-21" value="User views seat map" style="edgeLabel;html=1;align=center;verticalAlign=middle;resizable=0;points=[];" vertex="1" connectable="0" parent="RpzJhlvnqVRAioXKujeT-4">
          <mxGeometry x="-0.2329" y="-1" relative="1" as="geometry">
            <mxPoint y="1" as="offset" />
          </mxGeometry>
        </mxCell>
        <mxCell id="HPQqTix-k1KZv60HH8lt-8" value="" style="ellipse;whiteSpace=wrap;html=1;aspect=fixed;fillColor=#000000;" parent="1" vertex="1">
          <mxGeometry x="1600" y="925" width="30" height="30" as="geometry" />
        </mxCell>
        <mxCell id="XJ0hhTHGogcGhbCVhdeB-1" value="State Transition Diagram for Seat Object" style="text;html=1;strokeColor=#d6b656;fillColor=#fff2cc;align=center;verticalAlign=middle;whiteSpace=wrap;rounded=0;" parent="1" vertex="1">
          <mxGeometry x="1320" y="900" width="170" height="60" as="geometry" />
        </mxCell>
        <mxCell id="RpzJhlvnqVRAioXKujeT-11" style="edgeStyle=orthogonalEdgeStyle;rounded=0;orthogonalLoop=1;jettySize=auto;html=1;exitX=0.5;exitY=1;exitDx=0;exitDy=0;entryX=0.5;entryY=0;entryDx=0;entryDy=0;" edge="1" parent="1" source="d0ObZKYIOj4vL6NHh_b1-1" target="RpzJhlvnqVRAioXKujeT-6">
          <mxGeometry relative="1" as="geometry" />
        </mxCell>
        <mxCell id="RpzJhlvnqVRAioXKujeT-22" value="User decides on desired seat" style="edgeLabel;html=1;align=center;verticalAlign=middle;resizable=0;points=[];" vertex="1" connectable="0" parent="RpzJhlvnqVRAioXKujeT-11">
          <mxGeometry x="-0.2333" y="3" relative="1" as="geometry">
            <mxPoint as="offset" />
          </mxGeometry>
        </mxCell>
        <mxCell id="d0ObZKYIOj4vL6NHh_b1-1" value="Available for Reservation" style="rounded=1;whiteSpace=wrap;html=1;" parent="1" vertex="1">
          <mxGeometry x="1555" y="1030" width="120" height="60" as="geometry" />
        </mxCell>
        <mxCell id="RpzJhlvnqVRAioXKujeT-19" style="edgeStyle=orthogonalEdgeStyle;rounded=0;orthogonalLoop=1;jettySize=auto;html=1;exitX=0.5;exitY=1;exitDx=0;exitDy=0;entryX=1;entryY=0.5;entryDx=0;entryDy=0;" edge="1" parent="1" source="RpzJhlvnqVRAioXKujeT-1" target="HPQqTix-k1KZv60HH8lt-3">
          <mxGeometry relative="1" as="geometry" />
        </mxCell>
        <mxCell id="RpzJhlvnqVRAioXKujeT-1" value="Damaged" style="rounded=1;whiteSpace=wrap;html=1;" vertex="1" parent="1">
          <mxGeometry x="1890" y="910" width="120" height="60" as="geometry" />
        </mxCell>
        <mxCell id="RpzJhlvnqVRAioXKujeT-14" style="edgeStyle=orthogonalEdgeStyle;rounded=0;orthogonalLoop=1;jettySize=auto;html=1;exitX=0.5;exitY=1;exitDx=0;exitDy=0;entryX=0.5;entryY=0;entryDx=0;entryDy=0;" edge="1" parent="1" source="RpzJhlvnqVRAioXKujeT-6" target="RpzJhlvnqVRAioXKujeT-12">
          <mxGeometry relative="1" as="geometry" />
        </mxCell>
        <mxCell id="RpzJhlvnqVRAioXKujeT-23" value="User pays for seat reservation" style="edgeLabel;html=1;align=center;verticalAlign=middle;resizable=0;points=[];" vertex="1" connectable="0" parent="RpzJhlvnqVRAioXKujeT-14">
          <mxGeometry x="-0.094" y="1" relative="1" as="geometry">
            <mxPoint as="offset" />
          </mxGeometry>
        </mxCell>
        <mxCell id="RpzJhlvnqVRAioXKujeT-6" value="Selected" style="rounded=1;whiteSpace=wrap;html=1;" vertex="1" parent="1">
          <mxGeometry x="1555.5" y="1163" width="120" height="60" as="geometry" />
        </mxCell>
        <mxCell id="RpzJhlvnqVRAioXKujeT-10" style="edgeStyle=orthogonalEdgeStyle;rounded=0;orthogonalLoop=1;jettySize=auto;html=1;exitX=0.5;exitY=0;exitDx=0;exitDy=0;entryX=0;entryY=0.5;entryDx=0;entryDy=0;" edge="1" parent="1" source="RpzJhlvnqVRAioXKujeT-8" target="d0ObZKYIOj4vL6NHh_b1-1">
          <mxGeometry relative="1" as="geometry" />
        </mxCell>
        <mxCell id="RpzJhlvnqVRAioXKujeT-8" value="Cancelled" style="rounded=1;whiteSpace=wrap;html=1;" vertex="1" parent="1">
          <mxGeometry x="1320" y="1210" width="120" height="60" as="geometry" />
        </mxCell>
        <mxCell id="RpzJhlvnqVRAioXKujeT-16" style="edgeStyle=orthogonalEdgeStyle;rounded=0;orthogonalLoop=1;jettySize=auto;html=1;exitX=0.5;exitY=1;exitDx=0;exitDy=0;entryX=0.5;entryY=0;entryDx=0;entryDy=0;" edge="1" parent="1" source="RpzJhlvnqVRAioXKujeT-12" target="RpzJhlvnqVRAioXKujeT-15">
          <mxGeometry relative="1" as="geometry" />
        </mxCell>
        <mxCell id="RpzJhlvnqVRAioXKujeT-25" value="Seat set as reserved in database" style="edgeLabel;html=1;align=center;verticalAlign=middle;resizable=0;points=[];" vertex="1" connectable="0" parent="RpzJhlvnqVRAioXKujeT-16">
          <mxGeometry x="0.0279" y="1" relative="1" as="geometry">
            <mxPoint as="offset" />
          </mxGeometry>
        </mxCell>
        <mxCell id="RpzJhlvnqVRAioXKujeT-12" value="Paid" style="rounded=1;whiteSpace=wrap;html=1;" vertex="1" parent="1">
          <mxGeometry x="1555.5" y="1300" width="120" height="60" as="geometry" />
        </mxCell>
        <mxCell id="RpzJhlvnqVRAioXKujeT-17" style="edgeStyle=orthogonalEdgeStyle;rounded=0;orthogonalLoop=1;jettySize=auto;html=1;exitX=0;exitY=0.5;exitDx=0;exitDy=0;entryX=0.5;entryY=1;entryDx=0;entryDy=0;" edge="1" parent="1" source="RpzJhlvnqVRAioXKujeT-15" target="RpzJhlvnqVRAioXKujeT-8">
          <mxGeometry relative="1" as="geometry" />
        </mxCell>
        <mxCell id="RpzJhlvnqVRAioXKujeT-24" value="User cancels ticket" style="edgeLabel;html=1;align=center;verticalAlign=middle;resizable=0;points=[];" vertex="1" connectable="0" parent="RpzJhlvnqVRAioXKujeT-17">
          <mxGeometry x="0.2047" relative="1" as="geometry">
            <mxPoint y="-55" as="offset" />
          </mxGeometry>
        </mxCell>
        <mxCell id="RpzJhlvnqVRAioXKujeT-18" style="edgeStyle=orthogonalEdgeStyle;rounded=0;orthogonalLoop=1;jettySize=auto;html=1;exitX=0.5;exitY=1;exitDx=0;exitDy=0;entryX=0.5;entryY=0;entryDx=0;entryDy=0;" edge="1" parent="1" source="RpzJhlvnqVRAioXKujeT-15" target="HPQqTix-k1KZv60HH8lt-3">
          <mxGeometry relative="1" as="geometry" />
        </mxCell>
        <mxCell id="RpzJhlvnqVRAioXKujeT-15" value="Unavailable" style="rounded=1;whiteSpace=wrap;html=1;" vertex="1" parent="1">
          <mxGeometry x="1548" y="1436" width="135" height="60" as="geometry" />
        </mxCell>
      </root>
    </mxGraphModel>
  </diagram>
</mxfile>
